<svg width="27" height="24" viewBox="0 0 27 24" fill="none" xmlns="http://www.w3.org/2000/svg">
<path d="M13.2902 6.32903C12.0708 7.01998 10.3472 7.04074 9.11259 6.37991C8.25979 5.9234 7.29442 5.666 6.27189 5.666C2.80804 5.666 0 8.61953 0 12.2628C0 15.9062 2.80804 18.8596 6.27189 18.8596C7.34652 18.8596 8.35802 18.5754 9.24215 18.0744C10.4616 17.3835 12.1852 17.3628 13.4197 18.0236C14.2726 18.4801 15.238 23.5 16.2605 23.5C19.7244 23.5 27 15.784 27 12.1407C27 8.4973 19.7244 0.5 16.2605 0.5C15.1859 0.5 14.1744 5.82808 13.2902 6.32903Z" fill="#FC6D3E"/>
</svg>
